{"title":"A Teacher DVDRip.flv","uid":8834377,"size":359173858,"categoryP":"video","categoryS":"movies","magnet":"?xt=urn:btih:90c8c5ea13dad480b3316d319fe3a016098623f0&amp;dn=A+Teacher+DVDRip.flv&amp;tr=udp%3A%2F%2Ftracker.openbittorrent.com%3A80&amp;tr=udp%3A%2F%2Fopen.demonii.com%3A1337&amp;tr=udp%3A%2F%2Ftracker.coppersurfer.tk%3A6969&amp;tr=udp%3A%2F%2Fexodus.desync.com%3A6969","seeders":1,"leechers":0,"uploader":"globeplus","files":-1,"time":1377075058,"description":"A Teacher DVDRip.flv\n\nFormat                                   : Flash Video\nFile size                                : 343 MiB\nDuration                                 : 1h 15mn\nOverall bit rate                         : 633 Kbps\nTagging application                      : Yet Another Metadata Injector for FLV - Version 1.9\n\nVideo\n\nFormat                                   : AVC\nFormat/Info                              : Advanced Video Codec\nFormat profile                           : &lt;a class=&quot;__cf_email__&quot; href=&quot;/cdn-cgi/l/email-protection&quot; data-cfemail=&quot;b2fadbd5daf2fe809c83&quot;&gt;[email&amp;#160;protected]&lt;/a&gt;&lt;script cf-hash='f9e31' type=&quot;text/javascript&quot;&gt;\n/* &lt;![CDATA[ */!function(){try{var t=&quot;currentScript&quot;in document?document.currentScript:function(){for(var t=document.getElementsByTagName(&quot;script&quot;),e=t.length;e--;)if(t[e].getAttribute(&quot;cf-hash&quot;))return t[e]}();if(t&amp;&amp;t.previousSibling){var e,r,n,i,c=t.previousSibling,a=c.getAttribute(&quot;data-cfemail&quot;);if(a){for(e=&quot;&quot;,r=parseInt(a.substr(0,2),16),n=2;a.length-n;n+=2)i=parseInt(a.substr(n,2),16)^r,e+=String.fromCharCode(i);e=document.createTextNode(e),c.parentNode.replaceChild(e,c)}}}catch(u){}}();/* ]]&gt; */&lt;/script&gt;\nFormat settings, CABAC                   : Yes\nFormat settings, ReFrames                : 4 frames\nCodec ID                                 : 7\nDuration                                 : 1h 15mn\nBit rate                                 : 526 Kbps\nWidth                                    : 640 pixels\nHeight                                   : 272 pixels\nDisplay aspect ratio                     : 2.35:1\nFrame rate mode                          : Constant\nFrame rate                               : 23.976 fps\nColor space                              : YUV\nChroma subsampling                       : 4:2:0\nBit depth                                : 8 bits\nScan type                                : Progressive\nBits/(Pixel*Frame)                       : 0.126\nStream size                              : 287 MiB (84%)\nWriting library                          : x264 core 118\n\n\nAudio\n\nFormat                                   : AAC\nFormat/Info                              : Advanced Audio Codec\nFormat profile                           : LC\nCodec ID                                 : 10\nDuration                                 : 1h 15mn\nBit rate                                 : 94.5 Kbps\nChannel(s)                               : 2 channels\nChannel positions                        : Front: L R\nSampling rate                            : 48.0 KHz\nCompression mode                         : Lossy\nDelay relative to video                  : 42ms\nStream size                              : 54.6 MiB (16%)\n\n\nSTORY :\n\nA high school teacher in Austin, Texas has an affair with one of her students. Her life begins to unravel as the relationship comes to an end. \n\n\n\n* enjoy ...","torrent":{"xt":"urn:btih:90c8c5ea13dad480b3316d319fe3a016098623f0","amp;dn":"A+Teacher+DVDRip.flv","amp;tr":["udp%3A%2F%2Ftracker.openbittorrent.com%3A80","udp%3A%2F%2Fopen.demonii.com%3A1337","udp%3A%2F%2Ftracker.coppersurfer.tk%3A6969","udp%3A%2F%2Fexodus.desync.com%3A6969"],"infoHash":"90c8c5ea13dad480b3316d319fe3a016098623f0","infoHashBuffer":{"type":"Buffer","data":[144,200,197,234,19,218,212,128,179,49,109,49,159,227,160,22,9,134,35,240]},"announce":[],"urlList":[]}}